<?xml version="1.0" standalone="no"?>
<!DOCTYPE svg PUBLIC "-//W3C//DTD SVG 20010904//EN"
 "http://www.w3.org/TR/2001/REC-SVG-20010904/DTD/svg10.dtd">
<svg version="1.0" xmlns="http://www.w3.org/2000/svg"
 width="1122.000000pt" height="708.000000pt" viewBox="0 0 1122.000000 708.000000"
 preserveAspectRatio="xMidYMid meet">

<g transform="translate(0.000000,708.000000) scale(0.100000,-0.100000)"
fill="#000000" stroke="none">
<path d="M0 3540 l0 -3540 5610 0 5610 0 0 3540 0 3540 -5610 0 -5610 0 0
-3540z m5830 756 l0 -1994 305 -122 c168 -67 307 -125 309 -129 2 -3 -75 -186
-170 -406 -95 -220 -174 -404 -176 -408 -4 -11 -689 271 -778 320 -41 23 -99
70 -156 128 -78 77 -99 106 -138 186 -25 52 -55 132 -68 179 l-23 85 -2 2078
-3 2077 450 0 450 0 0 -1994z m-3012 1074 c337 -58 685 -207 953 -407 87 -65
238 -212 312 -303 96 -119 211 -302 286 -454 69 -143 147 -333 139 -341 -14
-14 -3745 -1634 -3755 -1631 -19 8 -161 305 -201 426 -79 233 -112 425 -112
662 0 554 227 1103 619 1497 318 319 738 517 1212 570 132 15 405 5 547 -19z
m6015 5 c464 -61 891 -275 1218 -612 172 -177 283 -336 390 -558 78 -160 176
-462 156 -481 -3 -3 -213 -48 -467 -99 -312 -63 -463 -89 -465 -81 -2 6 -11
40 -20 76 -42 162 -174 381 -306 506 -283 267 -701 375 -1064 275 -39 -11 -71
-18 -73 -17 -5 6 -302 900 -299 902 17 17 321 84 437 97 96 10 389 6 493 -8z
m-1330 -860 l314 -350 -62 -66 c-153 -163 -252 -346 -295 -549 -79 -368 24
-738 281 -1014 47 -50 68 -80 63 -88 -5 -7 -145 -166 -313 -353 -167 -187
-306 -342 -308 -344 -6 -8 -141 129 -221 224 -250 298 -416 675 -467 1063 -17
131 -20 390 -5 512 49 394 216 790 455 1076 72 87 227 245 237 242 3 -2 148
-160 321 -353z m2627 -1527 c250 -50 459 -95 464 -99 12 -11 -31 -175 -79
-305 -153 -409 -430 -758 -798 -1008 -182 -123 -416 -228 -641 -286 -306 -79
-669 -84 -976 -14 -106 24 -200 54 -200 64 0 4 68 208 150 451 83 243 150 443
150 444 0 1 44 -8 98 -21 511 -124 1036 122 1272 595 40 79 90 220 90 252 0
11 3 19 8 19 4 0 212 -41 462 -92z m-6275 -575 l383 -257 -39 -58 c-309 -455
-865 -779 -1474 -859 -145 -19 -442 -6 -593 25 -267 57 -531 165 -733 300
l-47 31 245 365 c134 201 248 371 253 379 6 12 21 5 71 -33 87 -65 206 -121
314 -147 118 -30 319 -32 445 -5 267 57 535 207 687 385 35 42 72 88 81 104 9
15 18 27 20 27 1 0 176 -116 387 -257z"/>
<path d="M2327 4504 c-192 -30 -429 -133 -576 -251 -157 -126 -284 -324 -337
-528 -20 -78 -27 -133 -31 -252 -3 -86 -2 -153 3 -153 18 0 1874 803 1874 811
0 13 -121 131 -186 181 -225 172 -470 236 -747 192z"/>
</g>
</svg>
